<?xml version="1.0" standalone="no"?>
<!DOCTYPE svg PUBLIC "-//W3C//DTD SVG 20010904//EN"
 "http://www.w3.org/TR/2001/REC-SVG-20010904/DTD/svg10.dtd">
<svg version="1.0" xmlns="http://www.w3.org/2000/svg"
 width="338.000000pt" height="101.000000pt" viewBox="0 0 338.000000 101.000000"
 preserveAspectRatio="xMidYMid meet">

<g transform="translate(0.000000,101.000000) scale(0.100000,-0.100000)"
fill="#000000" stroke="none">
<path d="M0 505 l0 -505 1690 0 1690 0 0 505 0 505 -1690 0 -1690 0 0 -505z
m1110 376 c0 -59 4 -84 16 -95 18 -19 20 -19 45 -6 16 9 19 22 19 95 l0 85 30
0 30 0 0 -80 c0 -43 -5 -90 -11 -104 -20 -43 -96 -59 -148 -31 -37 19 -41 31
-41 131 l0 84 30 0 30 0 0 -79z m269 28 c45 -16 53 -55 17 -84 l-26 -21 25
-24 c32 -30 32 -40 -2 -40 -18 0 -35 10 -50 28 l-22 27 -1 -27 c0 -23 -4 -28
-25 -28 -25 0 -25 1 -25 84 0 72 3 85 18 89 31 8 59 7 91 -4z m189 -11 c8 -7
12 -24 9 -42 -2 -16 1 -40 8 -52 11 -22 13 -20 37 39 23 55 29 62 54 62 25 0
31 -7 61 -75 l32 -75 1 78 0 77 28 0 c23 0 36 -10 63 -47 l34 -48 3 48 c3 39
6 47 23 47 17 0 19 -7 19 -85 0 -78 -2 -85 -20 -85 -12 0 -36 20 -60 51 l-40
51 0 -51 0 -51 -51 0 c-42 0 -52 3 -56 20 -8 29 -69 28 -78 -1 -5 -15 -14 -20
-33 -18 -15 1 -46 -1 -69 -5 -24 -4 -56 -5 -73 -1 l-30 7 0 83 c0 79 1 84 23
88 32 7 99 -2 115 -15z m-350 -264 c15 -10 22 -25 22 -49 0 -28 -6 -37 -30
-50 l-30 -16 32 -39 33 -39 3 80 3 79 59 0 c47 0 60 -3 60 -15 0 -10 -11 -15
-35 -15 -28 0 -35 -4 -35 -20 0 -16 7 -20 30 -20 20 0 30 -5 30 -15 0 -10 -10
-15 -30 -15 -23 0 -30 -4 -30 -20 0 -16 7 -20 35 -20 24 0 35 -5 35 -15 0 -12
-17 -15 -94 -15 l-94 0 -36 43 -36 42 0 -42 c0 -41 -1 -43 -30 -43 l-30 0 0
103 c0 57 3 107 7 110 13 14 138 7 161 -9z m306 -53 c27 -28 29 -100 3 -129
-22 -24 -71 -35 -115 -26 l-32 7 0 83 c0 93 2 95 79 89 28 -2 51 -10 65 -24z
m703 5 c37 -32 40 -103 5 -138 -33 -34 -97 -31 -128 5 -75 88 36 208 123 133z
m152 13 c63 -22 50 -94 -19 -105 -36 -6 -40 -10 -40 -35 0 -24 -4 -29 -25 -29
-25 0 -25 1 -25 84 0 72 3 85 18 89 31 8 59 7 91 -4z m-639 -54 l17 -50 17 53
18 52 84 0 c68 0 84 -3 84 -15 0 -10 -11 -15 -35 -15 -28 0 -35 -4 -35 -20 0
-16 7 -20 30 -20 20 0 30 -5 30 -15 0 -10 -10 -15 -30 -15 -23 0 -30 -4 -30
-20 0 -16 7 -20 35 -20 24 0 35 -5 35 -15 0 -12 -13 -15 -60 -15 l-59 0 -3 73
-3 72 -26 -70 c-22 -59 -30 -70 -52 -73 -23 -3 -28 4 -54 70 -27 71 -29 73
-60 70 -25 -2 -33 -8 -33 -23 0 -14 7 -19 30 -19 20 0 30 -5 30 -15 0 -10 -10
-15 -30 -15 -23 0 -30 -4 -30 -20 0 -16 7 -20 30 -20 20 0 30 -5 30 -15 0 -12
-13 -15 -55 -15 l-55 0 0 85 0 86 82 -3 81 -3 17 -50z m280 -15 l0 -70 30 0
c20 0 30 -5 30 -15 0 -12 -13 -15 -55 -15 l-55 0 0 85 c0 84 0 85 25 85 24 0
25 -2 25 -70z m481 58 c0 -7 8 -31 18 -53 l18 -40 17 53 c16 46 21 52 46 52
26 0 28 -3 34 -52 4 -29 9 -68 12 -85 6 -30 4 -33 -20 -33 -22 0 -26 5 -27 28
0 15 -4 36 -8 47 -7 16 -10 12 -23 -25 -10 -33 -21 -46 -36 -48 -12 -2 -22 1
-22 6 0 5 -8 27 -17 48 l-17 39 -6 -45 c-4 -37 -9 -46 -27 -48 -27 -4 -26 -6
-12 93 11 73 12 75 40 75 16 0 29 -6 30 -12z m279 -3 c0 -10 -11 -15 -35 -15
-28 0 -35 -4 -35 -20 0 -16 7 -20 30 -20 20 0 30 -5 30 -15 0 -10 -10 -15 -30
-15 -23 0 -30 -4 -30 -20 0 -16 7 -20 35 -20 24 0 35 -5 35 -15 0 -12 -13 -15
-60 -15 l-60 0 0 85 0 85 60 0 c47 0 60 -3 60 -15z m99 -36 l41 -52 0 52 c0
44 3 51 20 51 18 0 20 -7 20 -85 0 -82 -1 -85 -23 -85 -16 0 -35 16 -62 53
l-40 52 -3 -52 c-3 -45 -6 -53 -23 -53 -17 0 -19 7 -19 85 0 83 1 85 24 85 17
0 36 -15 65 -51z m221 36 c0 -8 -9 -15 -20 -15 -18 0 -20 -7 -20 -70 0 -68 -1
-70 -25 -70 -24 0 -25 2 -25 70 0 63 -2 70 -20 70 -11 0 -20 7 -20 15 0 12 14
15 65 15 51 0 65 -3 65 -15z m-1874 -353 c24 -57 44 -106 44 -108 0 -2 -15 -4
-34 -4 -28 0 -35 4 -40 25 -6 22 -12 25 -50 25 -38 0 -45 -3 -50 -25 -5 -20
-13 -25 -36 -25 -17 0 -30 2 -30 6 0 5 79 193 87 207 3 4 18 7 35 5 27 -3 33
-11 74 -106z m667 37 c21 -26 23 -96 2 -125 -28 -41 -122 -36 -145 6 -13 25
-13 86 1 111 23 43 109 48 142 8z m146 20 c17 -6 31 -15 31 -19 0 -5 3 -15 6
-24 3 -9 -4 -25 -20 -39 l-26 -24 25 -23 c32 -30 32 -40 -2 -40 -19 0 -37 10
-55 32 l-27 33 -1 -32 c0 -26 -4 -33 -20 -33 -18 0 -20 7 -20 84 0 58 4 86 13
89 21 9 63 7 96 -4z m-717 -66 c3 -60 5 -68 23 -68 18 0 20 8 23 68 3 64 4 67
27 67 24 0 25 -2 25 -74 0 -86 -10 -99 -75 -99 -65 0 -75 13 -75 99 0 72 1 74
25 74 23 0 24 -3 27 -67z m238 52 c0 -8 -9 -15 -20 -15 -18 0 -20 -7 -20 -70
0 -68 -1 -70 -25 -70 -24 0 -25 2 -25 70 0 63 -2 70 -20 70 -11 0 -20 7 -20
15 0 12 14 15 65 15 51 0 65 -3 65 -15z m60 -20 c0 -32 2 -35 30 -35 28 0 30
3 30 35 0 31 3 35 25 35 25 0 25 -1 25 -85 0 -84 0 -85 -25 -85 -22 0 -25 4
-25 35 0 32 -2 35 -30 35 -28 0 -30 -3 -30 -35 0 -31 -3 -35 -25 -35 -25 0
-25 1 -25 85 0 84 0 85 25 85 22 0 25 -4 25 -35z m520 -50 c0 -84 0 -85 -25
-85 -25 0 -25 1 -25 85 0 84 0 85 25 85 25 0 25 -1 25 -85z m140 70 c0 -8 -9
-15 -20 -15 -18 0 -20 -7 -20 -70 0 -68 -1 -70 -25 -70 -24 0 -25 2 -25 70 0
63 -2 70 -20 70 -11 0 -20 7 -20 15 0 12 14 15 65 15 51 0 65 -3 65 -15z m75
-12 l18 -26 14 26 c9 18 22 27 38 27 32 0 31 -5 -5 -60 -18 -27 -30 -58 -30
-77 0 -28 -3 -33 -25 -33 -22 0 -25 4 -25 38 0 22 -10 53 -25 77 -31 50 -31
55 -1 55 15 0 30 -10 41 -27z"/>
<path d="M1320 860 c0 -33 19 -40 40 -15 10 12 10 18 0 30 -21 25 -40 18 -40
-15z"/>
<path d="M1480 865 c0 -22 4 -26 23 -23 14 2 22 10 22 23 0 13 -8 21 -22 23
-19 3 -23 -1 -23 -23z"/>
<path d="M1671 853 c-1 -6 -4 -18 -7 -27 -4 -11 -1 -16 10 -16 18 0 19 6 6 35
-5 11 -9 15 -9 8z"/>
<path d="M1480 791 c0 -24 4 -31 19 -31 23 0 48 28 35 39 -5 5 -19 12 -31 16
-20 6 -23 3 -23 -24z"/>
<path d="M1110 580 c0 -43 13 -50 51 -30 37 20 17 70 -28 70 -20 0 -23 -5 -23
-40z"/>
<path d="M1437 573 c-4 -3 -7 -30 -7 -60 0 -50 2 -53 24 -53 31 0 38 11 38 58
0 42 -34 77 -55 55z"/>
<path d="M2144 555 c-30 -46 12 -123 48 -87 14 14 12 80 -2 97 -17 21 -27 19
-46 -10z"/>
<path d="M2320 550 c0 -33 19 -40 40 -15 10 12 10 18 0 30 -21 25 -40 18 -40
-15z"/>
<path d="M1132 241 c-10 -29 -10 -31 14 -31 22 0 24 3 19 23 -12 37 -22 40
-33 8z"/>
<path d="M1805 254 c-20 -20 -19 -78 1 -95 33 -27 64 20 50 76 -7 29 -31 38
-51 19z"/>
<path d="M1970 240 c0 -23 5 -30 19 -30 28 0 47 26 31 45 -7 8 -21 15 -31 15
-14 0 -19 -7 -19 -30z"/>
</g>
</svg>
